<?xml version="1.0" standalone="no"?>
<!DOCTYPE svg PUBLIC "-//W3C//DTD SVG 20010904//EN"
 "http://www.w3.org/TR/2001/REC-SVG-20010904/DTD/svg10.dtd">
<svg version="1.0" xmlns="http://www.w3.org/2000/svg"
 width="864.000000pt" height="864.000000pt" viewBox="0 0 864.000000 864.000000"
 preserveAspectRatio="xMidYMid meet">
<metadata>
Created by potrace 1.11, written by Peter Selinger 2001-2013
</metadata>
<g transform="translate(0.000000,864.000000) scale(0.100000,-0.100000)"
fill="#000000" stroke="none">
<path d="M1385 5700 c-759 -759 -1379 -1383 -1379 -1386 1 -4 622 -627 1380
-1385 l1378 -1379 424 423 423 424 -328 328 c-180 181 -476 476 -657 657
l-328 329 -143 -142 -143 -143 515 -514 514 -515 -137 -138 c-76 -76 -139
-137 -141 -136 -4 3 -1479 1477 -1478 1477 0 0 -114 115 -255 255 l-255 255
418 0 417 0 1 33 c3 172 -2 362 -10 366 -5 3 -192 6 -415 5 -224 0 -405 3
-404 8 2 4 448 453 993 998 l989 991 139 -139 139 -139 -511 -510 c-281 -281
-511 -515 -511 -519 0 -5 62 -71 138 -147 l138 -138 634 634 c349 349 645 646
657 659 l22 23 -423 422 -422 423 -1379 -1380z"/>
<path d="M5452 6656 l-423 -423 1239 -1240 1239 -1240 -811 -811 c-446 -447
-813 -814 -816 -816 -3 -3 -68 57 -143 133 l-138 139 677 677 c372 372 674
678 672 680 -50 55 -274 275 -279 275 -4 0 -375 -368 -824 -817 l-816 -816
423 -423 c232 -233 425 -421 428 -418 6 5 1820 1819 1820 1820 0 0 83 83 185
184 102 101 185 188 185 193 0 5 -556 564 -1235 1244 l-1235 1235 138 139 138
139 1239 -1240 1240 -1240 142 142 143 143 -1378 1378 c-757 757 -1379 1379
-1382 1382 -3 2 -196 -186 -428 -419z"/>
</g>
</svg>
